<svg xmlns="http://www.w3.org/2000/svg" version="1.1" xmlns:xlink="http://www.w3.org/1999/xlink" xmlns:svgjs="http://svgjs.dev/svgjs" width="1500" height="1500" viewBox="0 0 1500 1500"><rect width="1500" height="1500" fill="#bb84e8"></rect><g transform="matrix(0.6666666666666666,0,0,0.6666666666666666,249.78425655976667,249.78425655976673)"><svg viewBox="0 0 343 343" data-background-color="#bb84e8" preserveAspectRatio="xMidYMid meet" height="1500" width="1500" xmlns="http://www.w3.org/2000/svg" xmlns:xlink="http://www.w3.org/1999/xlink"><g id="tight-bounds" transform="matrix(1,0,0,1,0.0740000000000407,0.07400000000001228)"><svg viewBox="0 0 342.85155851775386 342.85155851775386" height="342.85155851775386" width="342.85155851775386"><g><svg></svg></g><g><svg viewBox="0 0 342.85155851775386 342.85155851775386" height="342.85155851775386" width="342.85155851775386"><g><path d="M0 171.426c0-94.676 76.75-171.426 171.426-171.426 94.676 0 171.426 76.75 171.426 171.426 0 94.676-76.75 171.426-171.426 171.426-94.676 0-171.426-76.75-171.426-171.426zM171.426 340.62c93.444 0 169.195-75.751 169.195-169.194 0-93.444-75.751-169.195-169.195-169.195-93.444 0-169.195 75.751-169.195 169.195 0 93.444 75.751 169.195 169.195 169.194z" data-fill-palette-color="tertiary" fill="#454545" stroke="transparent"></path><ellipse rx="164.56874808852186" ry="164.56874808852186" cx="171.42577925887693" cy="171.42577925887693" fill="#454545" stroke="transparent" stroke-width="0" fill-opacity="1" data-fill-palette-color="tertiary"></ellipse></g><g transform="matrix(1,0,0,1,64.84655864529837,115.75425190352315)"><svg viewBox="0 0 213.1584412271571 111.34305471070755" height="111.34305471070755" width="213.1584412271571"><g><svg viewBox="0 0 213.1584412271571 111.34305471070755" height="111.34305471070755" width="213.1584412271571"><g><svg viewBox="0 0 213.1584412271571 111.34305471070755" height="111.34305471070755" width="213.1584412271571"><g transform="matrix(1,0,0,1,0,67.05146243669671)"><svg viewBox="0 0 213.1584412271571 44.29159227401084" height="44.29159227401084" width="213.1584412271571"><g id="textblocktransform"><svg viewBox="0 0 213.1584412271571 44.29159227401084" height="44.29159227401084" width="213.1584412271571" id="textblock"><g><svg viewBox="0 0 213.1584412271571 24.73983765403402" height="24.73983765403402" width="213.1584412271571"><g transform="matrix(1,0,0,1,0,0)"><svg width="213.1584412271571" viewBox="4.2 -37.5 323.08 37.5" height="24.73983765403402" data-palette-color="#bb84e8"><path d="M37.65-5L37.65 0 4.2 0 4.2-35 9.2-35 9.2-5 37.65-5ZM48-33.75L48-33.75Q48-32.2 46.9-31.1 45.8-30 44.25-30L44.25-30Q42.7-30 41.6-31.1 40.5-32.2 40.5-33.75L40.5-33.75Q40.5-35.3 41.6-36.4 42.7-37.5 44.25-37.5L44.25-37.5Q45.8-37.5 46.9-36.4 48-35.3 48-33.75ZM46.75-27.5L46.75 0 41.75 0 41.75-27.5 46.75-27.5ZM86.34-13.75L86.34-13.75Q86.34-10.9 85.3-8.43 84.25-5.95 82.37-4.05 80.5-2.15 78.02-1.07 75.55 0 72.7 0L72.7 0 53.95 0 53.95-37.5 58.95-37.5 58.95-5 72.7-5Q75.09-5 77.07-6.2 79.05-7.4 80.2-9.38 81.34-11.35 81.34-13.75L81.34-13.75Q81.34-16.15 80.2-18.13 79.05-20.1 77.07-21.3 75.09-22.5 72.7-22.5L72.7-22.5 61.45-22.5 61.45-27.5 72.7-27.5Q75.55-27.5 78.02-26.43 80.5-25.35 82.37-23.45 84.25-21.55 85.3-19.07 86.34-16.6 86.34-13.75ZM119.09-27.5L119.09-22.5 100.34-22.5Q98.79-22.5 97.69-21.4 96.59-20.3 96.59-18.75L96.59-18.75 96.59 0 91.59 0 91.59-18.75Q91.59-21.2 92.77-23.18 93.94-25.15 95.94-26.33 97.94-27.5 100.34-27.5L100.34-27.5 119.09-27.5ZM155.14-18.75L155.14-18.75Q155.14-16.35 153.97-14.35 152.79-12.35 150.82-11.18 148.84-10 146.39-10L146.39-10 127.24-10Q128.29-7.8 130.37-6.4 132.44-5 135.04-5L135.04-5 151.39-5 151.39 0 135.04 0Q132.19 0 129.72-1.07 127.24-2.15 125.37-4.05 123.49-5.95 122.44-8.43 121.39-10.9 121.39-13.75L121.39-13.75Q121.39-16.6 122.44-19.07 123.49-21.55 125.37-23.45 127.24-25.35 129.72-26.43 132.19-27.5 135.04-27.5L135.04-27.5 146.39-27.5Q148.84-27.5 150.82-26.33 152.79-25.15 153.97-23.18 155.14-21.2 155.14-18.75ZM126.49-15L146.39-15Q147.94-15 149.04-16.1 150.14-17.2 150.14-18.75L150.14-18.75Q150.14-20.3 149.04-21.4 147.94-22.5 146.39-22.5L146.39-22.5 135.04-22.5Q132.84-22.5 131.02-21.5 129.19-20.5 127.99-18.8 126.79-17.1 126.49-15L126.49-15ZM185.84-17.5L185.84 0 180.84 0 180.84-17.5Q180.84-20.95 179.16-23.8 177.49-26.65 174.64-28.33 171.79-30 168.34-30L168.34-30 165.64-30 165.64 0 160.64 0 160.64-35 168.34-35Q173.09-35 177.06-32.65 181.04-30.3 183.34-26.5L183.34-26.5Q185.64-30.3 189.61-32.65 193.59-35 198.34-35L198.34-35 206.04-35 206.04 0 201.04 0 201.04-30 198.34-30Q194.89-30 192.06-28.33 189.24-26.65 187.54-23.8 185.84-20.95 185.84-17.5L185.84-17.5ZM245.79-27.5L245.79 0 227.04 0Q224.19 0 221.71-1.07 219.24-2.15 217.36-4.05 215.49-5.95 214.44-8.43 213.39-10.9 213.39-13.75L213.39-13.75 213.39-27.5 218.39-27.5 218.39-13.75Q218.39-11.35 219.56-9.38 220.74-7.4 222.69-6.23 224.64-5.05 227.04-5L227.04-5 240.79-5 240.79-27.5 245.79-27.5ZM281.68-8.75L281.68-8.75Q281.68-6.3 280.51-4.33 279.33-2.35 277.36-1.18 275.38 0 272.93 0L272.93 0 251.68 0 251.68-5 272.93-5Q274.48-5 275.58-6.1 276.68-7.2 276.68-8.75L276.68-8.75Q276.68-10.3 275.58-11.4 274.48-12.5 272.93-12.5L272.93-12.5 259.18-12.5Q257.13-12.5 255.41-13.5 253.68-14.5 252.68-16.23 251.68-17.95 251.68-20L251.68-20Q251.68-22.1 252.68-23.8 253.68-25.5 255.41-26.5 257.13-27.5 259.18-27.5L259.18-27.5 279.18-27.5 279.18-22.5 259.18-22.5Q258.13-22.5 257.41-21.78 256.68-21.05 256.68-20L256.68-20Q256.68-18.95 257.41-18.23 258.13-17.5 259.18-17.5L259.18-17.5 272.93-17.5Q275.38-17.5 277.36-16.32 279.33-15.15 280.51-13.18 281.68-11.2 281.68-8.75ZM293.08-33.75L293.08-33.75Q293.08-32.2 291.98-31.1 290.88-30 289.33-30L289.33-30Q287.78-30 286.68-31.1 285.58-32.2 285.58-33.75L285.58-33.75Q285.58-35.3 286.68-36.4 287.78-37.5 289.33-37.5L289.33-37.5Q290.88-37.5 291.98-36.4 293.08-35.3 293.08-33.75ZM291.83-27.5L291.83 0 286.83 0 286.83-27.5 291.83-27.5ZM327.28-5L327.28 0 310.93 0Q308.08 0 305.6-1.07 303.13-2.15 301.25-4.05 299.38-5.95 298.33-8.43 297.28-10.9 297.28-13.75L297.28-13.75Q297.28-16.6 298.33-19.07 299.38-21.55 301.25-23.45 303.13-25.35 305.6-26.43 308.08-27.5 310.93-27.5L310.93-27.5 327.28-27.5 327.28-22.5 310.93-22.5Q308.53-22.5 306.58-21.3 304.63-20.1 303.45-18.13 302.28-16.15 302.28-13.75L302.28-13.75Q302.28-11.35 303.45-9.38 304.63-7.4 306.58-6.2 308.53-5 310.93-5L310.93-5 327.28-5Z" opacity="1" transform="matrix(1,0,0,1,0,0)" fill="#bb84e8" class="wordmark-text-0" data-fill-palette-color="quaternary" id="text-0"></path></svg></g></svg></g><g transform="matrix(1,0,0,1,0,30.580319568047756)"><svg viewBox="0 0 213.1584412271571 13.71127270596308" height="13.71127270596308" width="213.1584412271571"><g transform="matrix(1,0,0,1,0,0)"><svg width="213.1584412271571" viewBox="2.25 -34.86 541.95 34.66" height="13.71127270596308" data-palette-color="#bb84e8"><path d="M2.25-0.98L2.25-33.59 6.79-33.59Q8.89-33.59 13.5-33.69 18.12-33.79 20.41-33.79L20.41-33.79Q22.39-33.79 24.11-33.57 25.83-33.35 27.5-32.76 29.17-32.18 30.36-31.27 31.54-30.37 32.28-28.89 33.01-27.42 33.01-25.49L33.01-25.49Q33.01-22.83 31.76-20.95 30.52-19.07 27.93-17.77L27.93-17.77Q28.96-17.33 29.71-16.63 30.47-15.92 30.87-15.41 31.27-14.89 31.65-13.68 32.03-12.48 32.1-12.1 32.18-11.72 32.42-10.23L32.42-10.23Q32.5-9.89 32.52-9.72L32.52-9.72Q32.62-8.74 33.35-6.14 34.08-3.54 34.08-2.15L34.08-2.15Q34.08-1.27 33.54-1.27L33.54-1.27Q32.08-1.27 29.11-1.25 26.15-1.22 24.71-1.22L24.71-1.22Q24.12-1.27 22.95-1.27L22.95-1.27 21.29-1.27Q20.8-1.42 20.34-2.78 19.87-4.15 19.68-5.86L19.68-5.86 19.14-10.21Q18.99-10.74 18.91-10.97 18.82-11.21 18.6-11.54 18.38-11.87 18.01-11.99 17.63-12.11 17.04-12.11L17.04-12.11 15.92-12.11 15.92-2.34Q15.92-2.27 15.92-2.11 15.92-1.95 15.92-1.89 15.92-1.83 15.92-1.71 15.92-1.59 15.89-1.53 15.87-1.46 15.84-1.37 15.82-1.27 15.78-1.23 15.75-1.2 15.69-1.14 15.63-1.07 15.54-1.05 15.45-1.03 15.34-1 15.23-0.98 15.09-0.98L15.09-0.98 2.25-0.98ZM16.06-20.7L16.06-20.7Q16.11-20.65 16.21-20.5 16.31-20.34 16.41-20.24 16.5-20.14 16.6-20.12L16.6-20.12Q17.33-20.12 18.07-20.28 18.8-20.43 19.57-20.8 20.34-21.17 20.81-21.92 21.29-22.68 21.29-23.73L21.29-23.73Q21.29-26.27 16.41-26.27L16.41-26.27Q15.92-26.15 15.92-25.88L15.92-25.88 15.92-24.95Q15.92-24.24 15.99-22.83 16.06-21.41 16.06-20.7ZM34.71-16.21L34.71-17.68 34.67-18.21Q35.13-22.19 35.54-23.75L35.54-23.75Q36.5-27.42 38.96-29.88L38.96-29.88 39.55-30.47Q40.72-31.84 43.11-32.81L43.11-32.81 44.04-32.81Q46.43-33.81 51.9-34.67L51.9-34.67Q53.27-34.67 54.77-34.46 56.27-34.25 58.1-33.78 59.93-33.3 61.63-32.26 63.33-31.23 64.45-29.79L64.45-29.79 64.45-29.1Q68.45-24.1 68.45-17.87L68.45-17.87Q68.45-10.86 65.23-6.45L65.23-6.45 64.26-5.22Q63.13-3.83 61.46-2.83 59.79-1.83 57.91-1.31 56.03-0.78 54.31-0.56 52.59-0.34 50.88-0.34L50.88-0.34Q48.36-0.34 46.08-0.94 43.8-1.54 41.81-2.81 39.82-4.08 38.3-5.93 36.79-7.79 35.85-10.41 34.91-13.04 34.71-16.21L34.71-16.21ZM48.14-18.55L48.14-17.48Q48.14-8.89 51.41-8.89L51.41-8.89Q52.32-8.89 52.99-9.23 53.66-9.57 54.07-10.28 54.49-10.99 54.76-11.72 55.03-12.45 55.14-13.55 55.25-14.65 55.28-15.48 55.32-16.31 55.32-17.48L55.32-17.48 55.32-18.36Q55.32-19.63 55.17-20.8 55.03-21.97 54.67-23.16 54.32-24.34 53.59-25.06 52.85-25.78 51.8-25.78L51.8-25.78Q48.14-25.78 48.14-18.55L48.14-18.55ZM70.11-33.69L83.03-33.69 86.86-21.63Q88.72-26.59 90.33-31.54L90.33-31.54Q90.38-31.74 90.62-32.28 90.86-32.81 90.91-33.15L90.91-33.15Q91.11-33.74 93.55-33.74L93.55-33.74Q93.72-33.74 94.03-33.72 94.33-33.69 94.53-33.69L94.53-33.69Q98.51-33.74 103.12-33.79L103.12-33.79Q103.71-33.72 103.95-32.59L103.95-32.59 92.87-12.52 93.26-10.89Q93.26-9.47 93.31-6.57 93.35-3.66 93.35-2.54L93.35-2.54 93.35-1.81Q93.26-1.46 92.98-1.25 92.7-1.03 92.19-0.96 91.69-0.9 91.32-0.89 90.94-0.88 90.24-0.9 89.55-0.93 89.3-0.93L89.3-0.93 79.98-0.93 79.19-1.95 79.19-12.16 73.55-24.19 70.94-27.86Q68.94-31.86 68.94-33.01L68.94-33.01Q68.94-33.69 70.11-33.69L70.11-33.69ZM124.06-6.05L116.55-6.05Q116.37-5.49 116.22-4.58 116.06-3.66 115.92-3.14 115.79-2.61 115.47-2.04 115.15-1.46 114.51-1.2 113.86-0.93 112.83-0.93L112.83-0.93 102.29-0.93 102.29-1.76Q103.58-5.64 106.06-13.67 108.54-21.7 109.9-25.83L109.9-25.83 109.9-25.78Q110.73-28.15 112.35-33.2L112.35-33.2Q112.37-33.25 112.42-33.33L112.42-33.33Q112.64-33.69 112.83-33.89L112.83-33.89 126.02-33.79Q129.39-33.79 129.73-33.2L129.73-33.2 129.73-32.57Q129.78-32.35 130.27-31.45L130.27-31.45Q132.63-24.19 133.73-20.9L133.73-20.9 133.73-20.61Q133.83-19.9 134.17-18.99 134.51-18.09 134.99-17.05 135.47-16.02 135.66-15.43L135.66-15.43 136.64-11.91Q137.49-9.08 139.15-4.35L139.15-4.35 139.15-4.39 139.15-3.91Q139.23-3.56 139.52-2.98 139.81-2.39 139.89-2.15L139.89-2.15Q139.89-1.46 139.6-1.27 139.32-1.07 138.52-1.07L138.52-1.07 127.19-1.07Q126.77-1.12 126.65-1.15 126.53-1.17 126.27-1.25 126.02-1.32 125.91-1.44 125.8-1.56 125.77-1.76L125.77-1.76 124.85-5.47Q124.75-5.93 124.65-5.99 124.55-6.05 124.06-6.05L124.06-6.05ZM117.72-14.65L117.72-14.75 117.72-14.65ZM123.09-17.68L123.09-17.68Q122.94-18.36 122.66-19.89 122.38-21.41 122.11-22.55 121.84-23.68 121.53-24.66L121.53-24.66 121.53-25.83Q121.33-26.34 120.84-26.56L120.84-26.56 120.84-26.51Q120.26-26.39 119.67-23.24L119.67-23.24 119.67-22.07Q119.62-21.9 119.45-21.75 119.28-21.61 119.28-21.58L119.28-21.58Q118.47-18.02 117.96-15.82L117.96-15.82Q117.96-15.58 117.84-14.97 117.72-14.36 117.72-14.26L117.72-14.26 123.77-14.26Q123.77-14.89 123.33-16.55L123.33-16.55 123.33-17.09Q123.31-17.16 123.2-17.37 123.09-17.58 123.09-17.68ZM164.25-0.98L141.84-0.98Q141.76-1.07 141.6-1.2 141.45-1.32 141.25-1.66L141.25-1.66 141.25-12.21Q141.25-14.28 141.42-18.58 141.59-22.88 141.59-25.1L141.59-25.1Q141.59-25.59 141.49-27.17 141.4-28.76 141.4-29.69L141.4-29.69Q141.4-33.13 142.23-33.89L142.23-33.89Q147.3-33.79 149.79-33.79L149.79-33.79 152.14-33.79Q152.97-33.79 153.41-33.74L153.41-33.74Q153.46-33.79 153.65-33.79L153.65-33.79Q153.7-33.79 154.08-33.74 154.46-33.69 154.68-33.69L154.68-33.69Q155.29-33.62 155.7-32.67L155.7-32.67 155.7-32.32Q155.7-32.06 155.68-31.54 155.65-31.03 155.65-30.76L155.65-30.76 155.65-29.69Q155.63-29.57 155.35-29.26 155.07-28.96 155.07-28.76L155.07-28.76 155.07-10.94 165.42-10.94Q165.81-10.94 166.01-10.91 166.2-10.89 166.4-10.69 166.59-10.5 166.59-10.11L166.59-10.11 166.59-1.95Q166.4-0.98 164.25-0.98L164.25-0.98ZM166.44-24.71L166.44-24.71 166.44-33.5 194.86-33.5Q195.25-33.42 195.35-33.19 195.45-32.96 195.45-32.52L195.45-32.52 195.45-24.71Q195.4-24.12 194.76-24.12L194.76-24.12 187.83-24.12 187.83-1.66Q187.83-1.64 187.8-1.54 187.78-1.44 187.78-1.42 187.78-1.39 187.76-1.32 187.73-1.25 187.71-1.22 187.68-1.2 187.66-1.14 187.63-1.07 187.6-1.06 187.56-1.05 187.5-1.01 187.44-0.98 187.38-0.95 187.32-0.93 187.23-0.92 187.15-0.9 187.05-0.88L187.05-0.88 185.49-0.88Q182.36-0.88 182.36-1.07L182.36-1.07Q182.17-1.07 181.77-1.05 181.38-1.03 181.19-1.03L181.19-1.03 179.24-1.03Q178.67-1.03 177.64-1 176.6-0.98 176.01-0.98L176.01-0.98 174.65-0.98 173.67-1.66 173.67-6.93Q173.69-8.35 173.88-12.99 174.06-17.63 174.06-20.31L174.06-20.31 174.06-20.95Q174.06-21.14 174.08-21.56 174.11-21.97 174.11-22.17L174.11-22.17Q174.11-22.39 174.08-23.06 174.06-23.73 174.06-23.93L174.06-23.93 167.96-23.93Q167.42-23.93 166.93-24.11 166.44-24.29 166.44-24.71ZM195.64-33.69L208.55-33.69 212.39-21.63Q214.24-26.59 215.85-31.54L215.85-31.54Q215.9-31.74 216.15-32.28 216.39-32.81 216.44-33.15L216.44-33.15Q216.64-33.74 219.08-33.74L219.08-33.74Q219.25-33.74 219.55-33.72 219.86-33.69 220.05-33.69L220.05-33.69Q224.03-33.74 228.65-33.79L228.65-33.79Q229.23-33.72 229.48-32.59L229.48-32.59 218.39-12.52 218.78-10.89Q218.78-9.47 218.83-6.57 218.88-3.66 218.88-2.54L218.88-2.54 218.88-1.81Q218.78-1.46 218.5-1.25 218.22-1.03 217.72-0.96 217.22-0.9 216.84-0.89 216.46-0.88 215.77-0.9 215.07-0.93 214.83-0.93L214.83-0.93 205.5-0.93 204.72-1.95 204.72-12.16 199.08-24.19 196.47-27.86Q194.47-31.86 194.47-33.01L194.47-33.01Q194.47-33.69 195.64-33.69L195.64-33.69ZM246.42-0.98L245.78-2.05 245.78-33.01Q245.78-33.4 246.02-33.58 246.27-33.76 246.48-33.78 246.68-33.79 247.25-33.79L247.25-33.79 270.29-33.79Q270.49-33.79 270.61-33.73 270.73-33.67 270.81-33.61 270.88-33.54 270.9-33.41 270.93-33.28 270.94-33.2 270.95-33.13 270.94-32.98 270.93-32.84 270.93-32.81L270.93-32.81 270.93-24.51 259.5-24.51 259.5-23.63Q259.5-23.34 259.6-22.07L259.6-22.07 261.89-22.07Q262.24-22.09 263.13-22.23 264.02-22.36 264.53-22.36L264.53-22.36 266.53-22.36Q267.22-22.36 267.56-22.41L267.56-22.41Q268.56-22.41 269.39-22.17 270.22-21.92 270.29-21.63L270.29-21.63 270.29-20.21Q270.29-19.75 270.24-18.79 270.19-17.82 270.19-17.33L270.19-17.33 270.19-15.14Q270.24-14.94 270.24-14.45L270.24-14.45 270.24-13.48Q270.15-12.7 268.73-12.7L268.73-12.7 267.17-12.7Q266.34-12.7 264.79-12.65 263.24-12.6 262.38-12.6L262.38-12.6 259.65-12.6 259.65-0.98 246.42-0.98ZM273.37-0.98L273.37-33.59 277.91-33.59Q280.01-33.59 284.62-33.69 289.24-33.79 291.53-33.79L291.53-33.79Q293.51-33.79 295.23-33.57 296.95-33.35 298.62-32.76 300.29-32.18 301.48-31.27 302.66-30.37 303.4-28.89 304.13-27.42 304.13-25.49L304.13-25.49Q304.13-22.83 302.88-20.95 301.64-19.07 299.05-17.77L299.05-17.77Q300.08-17.33 300.83-16.63 301.59-15.92 301.99-15.41 302.39-14.89 302.77-13.68 303.15-12.48 303.22-12.1 303.3-11.72 303.54-10.23L303.54-10.23Q303.62-9.89 303.64-9.72L303.64-9.72Q303.74-8.74 304.47-6.14 305.2-3.54 305.2-2.15L305.2-2.15Q305.2-1.27 304.67-1.27L304.67-1.27Q303.2-1.27 300.23-1.25 297.27-1.22 295.83-1.22L295.83-1.22Q295.24-1.27 294.07-1.27L294.07-1.27 292.41-1.27Q291.92-1.42 291.46-2.78 290.99-4.15 290.8-5.86L290.8-5.86 290.26-10.21Q290.11-10.74 290.03-10.97 289.94-11.21 289.72-11.54 289.5-11.87 289.13-11.99 288.75-12.11 288.16-12.11L288.16-12.11 287.04-12.11 287.04-2.34Q287.04-2.27 287.04-2.11 287.04-1.95 287.04-1.89 287.04-1.83 287.04-1.71 287.04-1.59 287.01-1.53 286.99-1.46 286.96-1.37 286.94-1.27 286.9-1.23 286.87-1.2 286.81-1.14 286.75-1.07 286.66-1.05 286.57-1.03 286.46-1 286.35-0.98 286.21-0.98L286.21-0.98 273.37-0.98ZM287.18-20.7L287.18-20.7Q287.23-20.65 287.33-20.5 287.43-20.34 287.53-20.24 287.62-20.14 287.72-20.12L287.72-20.12Q288.45-20.12 289.19-20.28 289.92-20.43 290.69-20.8 291.46-21.17 291.93-21.92 292.41-22.68 292.41-23.73L292.41-23.73Q292.41-26.27 287.53-26.27L287.53-26.27Q287.04-26.15 287.04-25.88L287.04-25.88 287.04-24.95Q287.04-24.24 287.11-22.83 287.18-21.41 287.18-20.7ZM307.4-1.81L307.4-31.54Q307.4-33.01 307.52-33.25L307.52-33.25Q307.74-33.59 308.23-33.59L308.23-33.59 308.81-33.59Q309.2-33.59 309.35-33.54L309.35-33.54 310.62-33.54Q313.09-33.54 318.08-33.67 323.07-33.79 325.56-33.79L325.56-33.79 332.06-33.79Q332.69-33.72 332.69-33.15L332.69-33.15 332.69-25Q332.67-24.85 332.6-24.74 332.54-24.63 332.51-24.6 332.47-24.56 332.27-24.43 332.08-24.29 332.01-24.22L332.01-24.22 320.68-24.22 320.68-21.19 321.75-21.19Q323.17-21.19 326.07-21.29 328.98-21.39 330.54-21.39L330.54-21.39Q331.23-21.39 331.47-21.12 331.71-20.85 331.71-20.36L331.71-20.36Q331.71-20.24 331.66-19.95 331.62-19.65 331.62-19.53L331.62-19.53 331.62-18.6Q331.62-18.51 331.64-18.2 331.66-17.9 331.66-17.68L331.66-17.68 331.66-16.99Q331.66-16.46 331.71-15.92 331.76-15.38 331.76-14.99L331.76-14.99 331.76-14.36Q331.64-14.06 331.57-13.96 331.49-13.87 331.32-13.87L331.32-13.87 331.32-13.92Q330.42-13.92 328.21-13.79 326-13.67 324.68-13.67L324.68-13.67 320.78-13.67 320.78-10.55Q320.97-10.55 321.36-10.52 321.75-10.5 321.95-10.5L321.95-10.5Q323.05-10.5 325.19-10.57 327.34-10.64 328.3-10.64L328.3-10.64 331.42-10.64Q332.69-10.64 333.03-10.35L333.03-10.35Q333.15-10.21 333.23-10.06L333.23-10.06 333.23-2.25Q333.23-1.73 333.03-1.46 332.84-1.2 332.3-1.17L332.3-1.17 308.13-1.17 307.4-1.81ZM335.86-1.81L335.86-31.54Q335.86-33.01 335.98-33.25L335.98-33.25Q336.2-33.59 336.69-33.59L336.69-33.59 337.28-33.59Q337.67-33.59 337.81-33.54L337.81-33.54 339.08-33.54Q341.55-33.54 346.54-33.67 351.54-33.79 354.03-33.79L354.03-33.79 360.52-33.79Q361.15-33.72 361.15-33.15L361.15-33.15 361.15-25Q361.13-24.85 361.07-24.74 361.01-24.63 360.97-24.6 360.93-24.56 360.74-24.43 360.54-24.29 360.47-24.22L360.47-24.22 349.14-24.22 349.14-21.19 350.22-21.19Q351.63-21.19 354.54-21.29 357.44-21.39 359.01-21.39L359.01-21.39Q359.69-21.39 359.93-21.12 360.18-20.85 360.18-20.36L360.18-20.36Q360.18-20.24 360.13-19.95 360.08-19.65 360.08-19.53L360.08-19.53 360.08-18.6Q360.08-18.51 360.1-18.2 360.13-17.9 360.13-17.68L360.13-17.68 360.13-16.99Q360.13-16.46 360.18-15.92 360.23-15.38 360.23-14.99L360.23-14.99 360.23-14.36Q360.1-14.06 360.03-13.96 359.96-13.87 359.79-13.87L359.79-13.87 359.79-13.92Q358.88-13.92 356.67-13.79 354.46-13.67 353.15-13.67L353.15-13.67 349.24-13.67 349.24-10.55Q349.44-10.55 349.83-10.52 350.22-10.5 350.41-10.5L350.41-10.5Q351.51-10.5 353.66-10.57 355.81-10.64 356.76-10.64L356.76-10.64 359.88-10.64Q361.15-10.64 361.5-10.35L361.5-10.35Q361.62-10.21 361.69-10.06L361.69-10.06 361.69-2.25Q361.69-1.73 361.5-1.46 361.3-1.2 360.76-1.17L360.76-1.17 336.59-1.17 335.86-1.81ZM394.84-33.5L397.33-33.5Q397.5-33.54 397.88-33.58 398.26-33.62 398.36-33.64L398.36-33.64 401.26-18.77 405.07-33.69 422.23-33.69Q422.92-33.69 422.92-30.81L422.92-30.81 422.92-2.05Q422.87-1.66 422.7-1.42 422.53-1.17 422.2-1.09 421.87-1 421.68-0.99 421.5-0.98 421.06-0.98L421.06-0.98Q419.52-0.98 416.39-0.93 413.25-0.88 411.69-0.88L411.69-0.88Q410.47-1.64 410.47-6.49L410.47-6.49Q410.47-7.71 410.51-9.68 410.56-11.65 410.56-12.6L410.56-12.6 410.56-14.75Q410.56-14.92 410.54-15.3 410.51-15.67 410.51-15.87L410.51-15.87Q410.51-16.7 410.61-18.55L410.61-18.55 410.61-16.7Q410.27-15.26 409.29-12.3 408.32-9.35 407.98-7.91L407.98-7.91 406.51-1.66Q406.12-0.98 404.07-0.98L404.07-0.98Q403.07-0.98 401.47-1.03 399.87-1.07 399.04-1.07L399.04-1.07Q398.8-1.07 398.21-1.05 397.62-1.03 397.48-1.03L397.48-1.03Q396.7-1.03 396.35-1.22 396.01-1.42 395.87-2L395.87-2Q393.57-12.18 392.69-16.41L392.69-16.41 391.81-20.61Q391.47-13.5 391.47-5.57L391.47-5.57 391.47-1.27 379.95-1.27Q379.95-1.42 380.02-1.9 380.09-2.39 380.09-2.44L380.09-2.44Q379.9-7.13 379.9-14.01L379.9-14.01Q379.9-16.09 379.87-19.54 379.85-23 379.85-24.32L379.85-24.32 379.85-32.96Q379.85-33.28 379.95-33.44 380.05-33.59 380.44-33.89L380.44-33.89 382.68-33.89Q383.9-33.89 384.44-33.94L384.44-33.94Q386.91-33.94 390.43-33.72 393.96-33.5 394.84-33.5L394.84-33.5ZM410.61-18.75L410.61-18.7 410.61-18.75ZM427.5-27.93L427.5-27.88Q427.41-28.37 427.41-30.66L427.41-30.66Q427.41-33.3 427.89-33.79L427.89-33.79 441.18-33.79 441.18-13.28Q441.18-10.11 443.03-10.11L443.03-10.11Q443.81-10.11 444.33-10.8 444.84-11.5 444.84-12.45L444.84-12.45 444.84-16.06Q444.98-26.76 444.98-26.86L444.98-26.86Q444.98-31.1 444.89-33.01L444.89-33.01Q444.89-33.69 445.57-33.98L445.57-33.98 459.14-33.98 459.14-30.18Q458.83-20.92 458.75-18.26L458.75-18.26 458.75-16.75Q458.75-16.46 458.73-15.97 458.71-15.48 458.71-15.28L458.71-15.28Q458.71-14.45 458.75-14.11L458.75-14.11 458.75-12.21Q458.75-8.81 458.07-7.32L458.07-7.32 458.07-7.23Q457.29-5.4 455.82-4.06 454.36-2.73 452.48-1.99 450.6-1.25 448.62-0.92 446.64-0.59 444.45-0.59L444.45-0.59Q443.76-0.59 443.42-0.73L443.42-0.73 442.84-0.73Q442.84-0.49 442.1-0.49L442.1-0.49 442.1-0.44Q441.57-0.42 438.98-0.68L438.98-0.68 437.86-0.68Q436.32-0.85 434.89-1.37 433.46-1.88 432.12-2.82 430.78-3.76 429.76-5.05 428.75-6.35 428.11-8.2 427.48-10.06 427.41-12.26L427.41-12.26Q427.43-13.53 427.42-15.77 427.41-18.02 427.43-19.86 427.46-21.7 427.55-23.44L427.55-23.44 427.55-24.12Q427.55-24.24 427.58-24.51 427.6-24.78 427.6-24.9L427.6-24.9Q427.6-25.27 427.55-26 427.5-26.73 427.5-27.1L427.5-27.1 427.5-27.93ZM481.94-24.12L481.94-24.12Q481.29-24.12 480.87-24.32 480.46-24.51 480.21-24.8 479.97-25.1 479.66-25.39 479.36-25.68 478.7-25.88 478.04-26.07 477.01-26.07L477.01-26.07Q476.7-26.07 476.24-26.01 475.79-25.95 475.26-25.68 474.72-25.42 474.72-25L474.72-25Q474.72-24.54 475.17-24.21 475.62-23.88 476.2-23.74 476.77-23.61 477.49-23.43 478.21-23.24 478.5-23.1L478.5-23.1 482.09-22.22Q483.68-21.78 484.95-21.29 486.22-20.8 487.65-19.96 489.07-19.12 490.03-18.09 490.98-17.07 491.61-15.52 492.25-13.96 492.25-12.11L492.25-12.11Q492.25-9.86 491.66-8.11L491.66-8.11 491.66-8.15Q491.15-6.59 490.22-5.36 489.29-4.13 488.02-3.31 486.75-2.49 485.46-1.94 484.17-1.39 482.47-1.06 480.77-0.73 479.44-0.57 478.11-0.42 476.38-0.29L476.38-0.29Q468.69-0.68 466.08-2.73L466.08-2.73 466.08-3.03Q463.85-4.69 462.79-6.64 461.73-8.59 461.53-11.04L461.53-11.04Q461.53-11.62 462.07-11.62L462.07-11.62Q462.22-11.62 462.51-11.6 462.8-11.57 462.95-11.57L462.95-11.57 465.44-11.57Q465.78-11.62 466.42-11.62L466.42-11.62 467.05-11.62Q467.25-11.62 467.39-11.57L467.39-11.57Q468.81-11.62 472.23-11.62L472.23-11.62 473.35-11.62Q473.84-11.62 474.11-11.33 474.38-11.04 474.54-10.61 474.69-10.18 474.9-9.75 475.11-9.33 475.65-9.03 476.18-8.74 477.06-8.74L477.06-8.74Q478.01-8.74 478.78-9.24 479.55-9.74 479.55-10.69L479.55-10.69Q479.55-11.13 479.14-11.52 478.72-11.91 477.89-12.23 477.06-12.55 476.42-12.74 475.77-12.94 474.67-13.21 473.57-13.48 473.25-13.57L473.25-13.57 471.79-13.57Q466.49-15.14 464.16-17.54 461.83-19.95 461.83-23.63L461.83-23.63Q461.83-26.07 462.74-28.03 463.66-29.98 465.16-31.23 466.66-32.47 468.69-33.31 470.71-34.16 472.81-34.51 474.91-34.86 477.16-34.86L477.16-34.86Q481.14-34.86 484.55-33.53 487.95-32.2 489.71-30.08L489.71-30.08Q490.34-29.44 490.73-28.47 491.12-27.49 491.23-26.92 491.34-26.34 491.52-25L491.52-25 490.83-24.02 486.68-24.02Q486-24.02 484.41-24.07 482.82-24.12 481.94-24.12ZM508.07-0.93L494.69-0.93 494.69-33.01Q494.71-33.2 495.08-33.36 495.44-33.52 495.52-33.59L495.52-33.59 508.65-33.59 508.65-1.81Q508.53-1.29 508.42-1.11 508.31-0.93 508.07-0.93L508.07-0.93ZM528.86-0.2L528.86-0.2Q524.79-0.2 521.54-1.57 518.29-2.95 516.22-5.4 514.14-7.84 513.06-11.1 511.97-14.36 511.97-18.21L511.97-18.21 511.97-18.55Q511.99-18.73 512.05-19.4 512.12-20.07 512.13-20.28 512.14-20.48 512.21-21.07 512.29-21.66 512.34-21.92 512.38-22.19 512.47-22.71 512.56-23.22 512.67-23.55 512.77-23.88 512.92-24.34 513.07-24.8 513.24-25.22 513.41-25.63 513.63-26.07L513.63-26.07 513.63-26.03Q514.75-28.37 516.46-30.08 518.17-31.79 520.22-32.73 522.27-33.67 524.42-34.09 526.57-34.52 528.96-34.52L528.96-34.52Q531.99-34.52 534.43-33.92 536.87-33.33 538.48-32.32 540.09-31.32 541.24-29.9 542.39-28.47 542.98-26.95 543.56-25.44 543.81-23.68L543.81-23.68 543.81-21.58Q543.73-21.24 543.44-21.06 543.15-20.87 542.8-20.84 542.46-20.8 541.85-20.8L541.85-20.8 531.4-20.8 531.4-22.9Q531.28-23.73 530.69-24.41 530.11-25.1 529.25-25.1L529.25-25.1Q528.5-25.1 527.92-24.78 527.35-24.46 527.02-23.94 526.69-23.41 526.48-22.72 526.28-22.02 526.21-21.25 526.15-20.48 526.12-19.69 526.08-18.9 526.13-18.19L526.13-18.19Q526.13-17.7 526.13-17.48L526.13-17.48 526.13-14.75Q526.13-14.14 526.19-13.56 526.25-12.99 526.48-12.08 526.72-11.18 527.3-10.62 527.89-10.06 528.77-10.06L528.77-10.06Q529.69-10.06 530.15-10.84 530.6-11.62 530.9-12.72 531.21-13.82 531.6-14.21L531.6-14.21Q532.57-14.21 534.53-14.18 536.48-14.16 537.46-14.16L537.46-14.16Q538.14-14.16 539.48-14.18 540.83-14.21 541.51-14.21L541.51-14.21 543.32-14.21Q544.12-14.21 544.2-13.23L544.2-13.23 544.2-12.3Q543.66-7.45 540.61-4.47 537.56-1.49 532.97-0.68L532.97-0.68 532.97-0.54Q531.33-0.2 528.86-0.2Z" opacity="1" transform="matrix(1,0,0,1,0,0)" fill="#bb84e8" class="slogan-text-1" data-fill-palette-color="quaternary" id="text-1"></path></svg></g></svg></g></svg></g></svg></g><g transform="matrix(1,0,0,1,75.97373035223707,0)"><svg viewBox="0 0 61.21098052268298 61.21098052268298" height="61.21098052268298" width="61.21098052268298"><g><svg xmlns="http://www.w3.org/2000/svg" xmlns:xlink="http://www.w3.org/1999/xlink" version="1.1" x="0" y="0" viewBox="8 8 84 84" enable-background="new 0 0 100 100" xml:space="preserve" height="61.21098052268298" width="61.21098052268298" class="icon-icon-0" data-fill-palette-color="quaternary" id="icon-0"><path fill="#bb84e8" d="M49.99 78C34.557 77.977 22 65.416 22 50c0-1.104-0.896-2-2-2s-2 0.896-2 2c0 17.618 14.348 31.973 31.984 32 0.001 0 0.002 0 0.003 0 1.103 0 1.999-0.894 2-1.997C51.989 78.898 51.095 78.002 49.99 78z" data-fill-palette-color="quaternary"></path><path fill="#bb84e8" d="M49.987 18c-1.104 0-2 0.896-2 2s0.896 2 2 2c14.831 0 26.841 11.668 27.937 27.141C77.999 50.195 78.876 51 79.917 51c0.047 0 0.095-0.002 0.143-0.005 1.102-0.078 1.932-1.035 1.854-2.137C80.668 31.267 66.943 18 49.987 18z" data-fill-palette-color="quaternary"></path><path fill="#bb84e8" d="M49.995 67C40.624 66.985 33 59.359 33 50c0-1.104-0.896-2-2-2s-2 0.896-2 2c0 11.562 9.416 20.982 20.989 21 0.001 0 0.002 0 0.003 0 1.103 0 1.999-0.894 2-1.997C51.994 67.898 51.1 67.002 49.995 67z" data-fill-palette-color="quaternary"></path><path fill="#bb84e8" d="M49.992 29c-1.104 0-2 0.896-2 2s0.896 2 2 2c9.137 0 16.601 7.503 16.994 17.082C67.03 51.158 67.916 52 68.983 52c0.028 0 0.056 0 0.083-0.002 1.104-0.045 1.961-0.977 1.917-2.08C70.502 38.188 61.282 29 49.992 29z" data-fill-palette-color="quaternary"></path><path fill="#bb84e8" d="M49.998 40c-5.512 0.001-9.997 4.488-9.998 10.001-0.001 5.506 4.481 9.992 9.993 9.999 0 0 0.013 0 0.014 0 2.781 0 5.457-1.126 7.342-3.09 1.812-1.887 2.75-4.37 2.644-6.993C59.765 44.356 55.375 40 49.998 40zM54.459 54.14C53.324 55.322 52 56 50 56v2l-0.006-2c-3.308-0.004-5.997-2.695-5.996-5.998 0-3.309 2.694-6.001 6.001-6.002 3.276 0 5.852 2.614 5.993 6.08C56.055 51.604 55.51 53.046 54.459 54.14z" data-fill-palette-color="quaternary"></path><path fill="#bb84e8" d="M50 8C27.234 8 8 27.233 8 50s19.234 42 42 42 42-19.233 42-42S72.766 8 50 8zM50 88c-20.598 0-38-17.402-38-38s17.402-38 38-38 38 17.402 38 38S70.598 88 50 88z" data-fill-palette-color="quaternary"></path></svg></g></svg></g><g></g></svg></g></svg></g></svg></g></svg></g><defs></defs></svg><rect width="342.85155851775386" height="342.85155851775386" fill="none" stroke="none" visibility="hidden"></rect></g></svg></g></svg>